<mxfile host="app.diagrams.net" agent="Mozilla/5.0 (X11; Linux x86_64; rv:130.0) Gecko/20100101 Firefox/130.0" version="24.7.12">
  <diagram name="Page-1" id="fpzTITsotDk4KmSROVmZ">
    <mxGraphModel dx="1434" dy="749" grid="1" gridSize="10" guides="1" tooltips="1" connect="1" arrows="1" fold="1" page="1" pageScale="1" pageWidth="850" pageHeight="1100" math="0" shadow="0">
      <root>
        <mxCell id="0" />
        <mxCell id="1" parent="0" />
        <mxCell id="CCd25EBTlnnPslWAn7Sr-1" value="" style="rounded=1;whiteSpace=wrap;html=1;" parent="1" vertex="1">
          <mxGeometry x="380" width="120" height="200" as="geometry" />
        </mxCell>
        <mxCell id="CCd25EBTlnnPslWAn7Sr-2" value="" style="image;aspect=fixed;perimeter=ellipsePerimeter;html=1;align=center;shadow=0;dashed=0;spacingTop=3;image=img/lib/active_directory/generic_server.svg;" parent="1" vertex="1">
          <mxGeometry x="465" y="10" width="28.000000000000004" height="50" as="geometry" />
        </mxCell>
        <mxCell id="CCd25EBTlnnPslWAn7Sr-3" value="&lt;div&gt;Servidor&lt;/div&gt;&lt;div&gt;Mestre&lt;br&gt;&lt;/div&gt;" style="text;html=1;align=center;verticalAlign=middle;whiteSpace=wrap;rounded=0;" parent="1" vertex="1">
          <mxGeometry x="395" y="10" width="60" height="30" as="geometry" />
        </mxCell>
        <mxCell id="CCd25EBTlnnPslWAn7Sr-22" style="edgeStyle=orthogonalEdgeStyle;rounded=0;orthogonalLoop=1;jettySize=auto;html=1;exitX=0.5;exitY=0;exitDx=0;exitDy=0;startArrow=classic;startFill=1;" parent="1" edge="1">
          <mxGeometry relative="1" as="geometry">
            <mxPoint x="380" y="110" as="targetPoint" />
            <Array as="points">
              <mxPoint x="220" y="260" />
              <mxPoint x="280" y="260" />
              <mxPoint x="280" y="110" />
            </Array>
            <mxPoint x="220" y="280" as="sourcePoint" />
          </mxGeometry>
        </mxCell>
        <mxCell id="CCd25EBTlnnPslWAn7Sr-34" value="" style="edgeStyle=orthogonalEdgeStyle;rounded=0;orthogonalLoop=1;jettySize=auto;html=1;exitX=1;exitY=0.25;exitDx=0;exitDy=0;entryX=0;entryY=0.25;entryDx=0;entryDy=0;" parent="1" target="CCd25EBTlnnPslWAn7Sr-13" edge="1">
          <mxGeometry relative="1" as="geometry">
            <mxPoint x="280" y="310" as="sourcePoint" />
          </mxGeometry>
        </mxCell>
        <mxCell id="CCd25EBTlnnPslWAn7Sr-36" style="edgeStyle=orthogonalEdgeStyle;rounded=0;orthogonalLoop=1;jettySize=auto;html=1;exitX=1;exitY=0.25;exitDx=0;exitDy=0;entryX=0;entryY=0.25;entryDx=0;entryDy=0;" parent="1" target="CCd25EBTlnnPslWAn7Sr-25" edge="1">
          <mxGeometry relative="1" as="geometry">
            <mxPoint x="280" y="500" as="sourcePoint" />
          </mxGeometry>
        </mxCell>
        <mxCell id="CCd25EBTlnnPslWAn7Sr-37" style="edgeStyle=orthogonalEdgeStyle;rounded=0;orthogonalLoop=1;jettySize=auto;html=1;exitX=1;exitY=0.25;exitDx=0;exitDy=0;entryX=0;entryY=0.25;entryDx=0;entryDy=0;" parent="1" target="CCd25EBTlnnPslWAn7Sr-28" edge="1">
          <mxGeometry relative="1" as="geometry">
            <mxPoint x="280" y="660" as="sourcePoint" />
          </mxGeometry>
        </mxCell>
        <mxCell id="CCd25EBTlnnPslWAn7Sr-35" style="edgeStyle=orthogonalEdgeStyle;rounded=0;orthogonalLoop=1;jettySize=auto;html=1;exitX=0;exitY=0.75;exitDx=0;exitDy=0;entryX=1;entryY=0.75;entryDx=0;entryDy=0;" parent="1" source="CCd25EBTlnnPslWAn7Sr-13" edge="1">
          <mxGeometry relative="1" as="geometry">
            <mxPoint x="280" y="370" as="targetPoint" />
          </mxGeometry>
        </mxCell>
        <mxCell id="CCd25EBTlnnPslWAn7Sr-13" value="" style="rounded=1;whiteSpace=wrap;html=1;" parent="1" vertex="1">
          <mxGeometry x="600" y="280" width="160" height="120" as="geometry" />
        </mxCell>
        <mxCell id="CCd25EBTlnnPslWAn7Sr-14" value="&lt;div&gt;Servidor&lt;/div&gt;&lt;div&gt;de&lt;/div&gt;&lt;div&gt;Processamento&lt;br&gt;&lt;/div&gt;" style="text;html=1;align=center;verticalAlign=middle;whiteSpace=wrap;rounded=0;" parent="1" vertex="1">
          <mxGeometry x="630" y="297" width="60" height="30" as="geometry" />
        </mxCell>
        <mxCell id="CCd25EBTlnnPslWAn7Sr-15" value="" style="image;aspect=fixed;perimeter=ellipsePerimeter;html=1;align=center;shadow=0;dashed=0;spacingTop=3;image=img/lib/active_directory/generic_server.svg;" parent="1" vertex="1">
          <mxGeometry x="720" y="290" width="28.000000000000004" height="50" as="geometry" />
        </mxCell>
        <mxCell id="CCd25EBTlnnPslWAn7Sr-23" style="edgeStyle=orthogonalEdgeStyle;rounded=0;orthogonalLoop=1;jettySize=auto;html=1;exitX=0.5;exitY=0;exitDx=0;exitDy=0;startArrow=classic;startFill=1;" parent="1" source="CCd25EBTlnnPslWAn7Sr-45" edge="1">
          <mxGeometry relative="1" as="geometry">
            <mxPoint x="380" y="140" as="targetPoint" />
            <Array as="points">
              <mxPoint x="220" y="450" />
              <mxPoint x="290" y="450" />
              <mxPoint x="290" y="140" />
            </Array>
            <mxPoint x="220" y="440" as="sourcePoint" />
          </mxGeometry>
        </mxCell>
        <mxCell id="CCd25EBTlnnPslWAn7Sr-24" style="edgeStyle=orthogonalEdgeStyle;rounded=0;orthogonalLoop=1;jettySize=auto;html=1;exitX=0.5;exitY=0;exitDx=0;exitDy=0;startArrow=classic;startFill=1;" parent="1" target="CCd25EBTlnnPslWAn7Sr-1" edge="1">
          <mxGeometry relative="1" as="geometry">
            <Array as="points">
              <mxPoint x="220" y="610" />
              <mxPoint x="300" y="610" />
              <mxPoint x="300" y="170" />
            </Array>
            <mxPoint x="220" y="630" as="sourcePoint" />
            <mxPoint x="380" y="199" as="targetPoint" />
          </mxGeometry>
        </mxCell>
        <mxCell id="CCd25EBTlnnPslWAn7Sr-32" style="edgeStyle=orthogonalEdgeStyle;rounded=0;orthogonalLoop=1;jettySize=auto;html=1;exitX=0.5;exitY=0;exitDx=0;exitDy=0;entryX=0.992;entryY=0.695;entryDx=0;entryDy=0;startArrow=classic;startFill=1;entryPerimeter=0;" parent="1" source="CCd25EBTlnnPslWAn7Sr-25" target="CCd25EBTlnnPslWAn7Sr-1" edge="1">
          <mxGeometry relative="1" as="geometry">
            <Array as="points">
              <mxPoint x="680" y="450" />
              <mxPoint x="590" y="450" />
              <mxPoint x="590" y="140" />
            </Array>
          </mxGeometry>
        </mxCell>
        <mxCell id="CCd25EBTlnnPslWAn7Sr-39" style="edgeStyle=orthogonalEdgeStyle;rounded=0;orthogonalLoop=1;jettySize=auto;html=1;exitX=0;exitY=0.75;exitDx=0;exitDy=0;entryX=1;entryY=0.75;entryDx=0;entryDy=0;" parent="1" source="CCd25EBTlnnPslWAn7Sr-25" edge="1">
          <mxGeometry relative="1" as="geometry">
            <mxPoint x="280" y="560" as="targetPoint" />
          </mxGeometry>
        </mxCell>
        <mxCell id="CCd25EBTlnnPslWAn7Sr-25" value="" style="rounded=1;whiteSpace=wrap;html=1;" parent="1" vertex="1">
          <mxGeometry x="600" y="470" width="160" height="120" as="geometry" />
        </mxCell>
        <mxCell id="CCd25EBTlnnPslWAn7Sr-26" value="&lt;div&gt;Servidor&lt;/div&gt;&lt;div&gt;de&lt;/div&gt;&lt;div&gt;Processamento&lt;br&gt;&lt;/div&gt;" style="text;html=1;align=center;verticalAlign=middle;whiteSpace=wrap;rounded=0;" parent="1" vertex="1">
          <mxGeometry x="630" y="487" width="60" height="30" as="geometry" />
        </mxCell>
        <mxCell id="CCd25EBTlnnPslWAn7Sr-27" value="" style="image;aspect=fixed;perimeter=ellipsePerimeter;html=1;align=center;shadow=0;dashed=0;spacingTop=3;image=img/lib/active_directory/generic_server.svg;" parent="1" vertex="1">
          <mxGeometry x="720" y="480" width="28.000000000000004" height="50" as="geometry" />
        </mxCell>
        <mxCell id="CCd25EBTlnnPslWAn7Sr-33" style="edgeStyle=orthogonalEdgeStyle;rounded=0;orthogonalLoop=1;jettySize=auto;html=1;exitX=0.5;exitY=0;exitDx=0;exitDy=0;startArrow=classic;startFill=1;" parent="1" source="CCd25EBTlnnPslWAn7Sr-28" edge="1">
          <mxGeometry relative="1" as="geometry">
            <mxPoint x="500" y="170" as="targetPoint" />
            <Array as="points">
              <mxPoint x="680" y="610" />
              <mxPoint x="580" y="610" />
              <mxPoint x="580" y="170" />
            </Array>
          </mxGeometry>
        </mxCell>
        <mxCell id="CCd25EBTlnnPslWAn7Sr-38" style="edgeStyle=orthogonalEdgeStyle;rounded=0;orthogonalLoop=1;jettySize=auto;html=1;exitX=0;exitY=0.75;exitDx=0;exitDy=0;entryX=1;entryY=0.75;entryDx=0;entryDy=0;" parent="1" source="CCd25EBTlnnPslWAn7Sr-28" edge="1">
          <mxGeometry relative="1" as="geometry">
            <mxPoint x="280" y="720" as="targetPoint" />
          </mxGeometry>
        </mxCell>
        <mxCell id="CCd25EBTlnnPslWAn7Sr-28" value="" style="rounded=1;whiteSpace=wrap;html=1;" parent="1" vertex="1">
          <mxGeometry x="600" y="630" width="160" height="120" as="geometry" />
        </mxCell>
        <mxCell id="CCd25EBTlnnPslWAn7Sr-29" value="&lt;div&gt;Servidor&lt;/div&gt;&lt;div&gt;de&lt;/div&gt;&lt;div&gt;Processamento&lt;br&gt;&lt;/div&gt;" style="text;html=1;align=center;verticalAlign=middle;whiteSpace=wrap;rounded=0;" parent="1" vertex="1">
          <mxGeometry x="630" y="647" width="60" height="30" as="geometry" />
        </mxCell>
        <mxCell id="CCd25EBTlnnPslWAn7Sr-30" value="" style="image;aspect=fixed;perimeter=ellipsePerimeter;html=1;align=center;shadow=0;dashed=0;spacingTop=3;image=img/lib/active_directory/generic_server.svg;" parent="1" vertex="1">
          <mxGeometry x="720" y="640" width="28.000000000000004" height="50" as="geometry" />
        </mxCell>
        <mxCell id="CCd25EBTlnnPslWAn7Sr-40" value="" style="rounded=1;whiteSpace=wrap;html=1;" parent="1" vertex="1">
          <mxGeometry x="160" y="280" width="120" height="120" as="geometry" />
        </mxCell>
        <mxCell id="CCd25EBTlnnPslWAn7Sr-43" value="" style="verticalLabelPosition=bottom;sketch=0;aspect=fixed;html=1;verticalAlign=top;strokeColor=none;align=center;outlineConnect=0;shape=mxgraph.citrix.desktop;" parent="1" vertex="1">
          <mxGeometry x="230" y="289.5" width="40.87" height="45" as="geometry" />
        </mxCell>
        <mxCell id="CCd25EBTlnnPslWAn7Sr-44" value="Cliente" style="text;html=1;align=center;verticalAlign=middle;whiteSpace=wrap;rounded=0;" parent="1" vertex="1">
          <mxGeometry x="160" y="287" width="60" height="30" as="geometry" />
        </mxCell>
        <mxCell id="CCd25EBTlnnPslWAn7Sr-45" value="" style="rounded=1;whiteSpace=wrap;html=1;" parent="1" vertex="1">
          <mxGeometry x="160" y="470" width="120" height="120" as="geometry" />
        </mxCell>
        <mxCell id="CCd25EBTlnnPslWAn7Sr-46" value="" style="verticalLabelPosition=bottom;sketch=0;aspect=fixed;html=1;verticalAlign=top;strokeColor=none;align=center;outlineConnect=0;shape=mxgraph.citrix.desktop;" parent="1" vertex="1">
          <mxGeometry x="230" y="479.5" width="40.87" height="45" as="geometry" />
        </mxCell>
        <mxCell id="CCd25EBTlnnPslWAn7Sr-47" value="Cliente" style="text;html=1;align=center;verticalAlign=middle;whiteSpace=wrap;rounded=0;" parent="1" vertex="1">
          <mxGeometry x="160" y="477" width="60" height="30" as="geometry" />
        </mxCell>
        <mxCell id="CCd25EBTlnnPslWAn7Sr-48" value="" style="rounded=1;whiteSpace=wrap;html=1;" parent="1" vertex="1">
          <mxGeometry x="160" y="630" width="120" height="120" as="geometry" />
        </mxCell>
        <mxCell id="CCd25EBTlnnPslWAn7Sr-49" value="" style="verticalLabelPosition=bottom;sketch=0;aspect=fixed;html=1;verticalAlign=top;strokeColor=none;align=center;outlineConnect=0;shape=mxgraph.citrix.desktop;" parent="1" vertex="1">
          <mxGeometry x="230" y="639.5" width="40.87" height="45" as="geometry" />
        </mxCell>
        <mxCell id="CCd25EBTlnnPslWAn7Sr-50" value="Cliente" style="text;html=1;align=center;verticalAlign=middle;whiteSpace=wrap;rounded=0;" parent="1" vertex="1">
          <mxGeometry x="160" y="637" width="60" height="30" as="geometry" />
        </mxCell>
        <mxCell id="CCd25EBTlnnPslWAn7Sr-51" style="edgeStyle=orthogonalEdgeStyle;rounded=0;orthogonalLoop=1;jettySize=auto;html=1;exitX=0.5;exitY=0;exitDx=0;exitDy=0;entryX=1.008;entryY=0.555;entryDx=0;entryDy=0;entryPerimeter=0;" parent="1" source="CCd25EBTlnnPslWAn7Sr-13" target="CCd25EBTlnnPslWAn7Sr-1" edge="1">
          <mxGeometry relative="1" as="geometry">
            <Array as="points">
              <mxPoint x="680" y="260" />
              <mxPoint x="600" y="260" />
              <mxPoint x="600" y="111" />
            </Array>
          </mxGeometry>
        </mxCell>
        <mxCell id="Hu3N7TcJ0TKd5YK8f3Nd-1" value="&lt;div&gt;Solicitações de salas vindas dos clientes&lt;br&gt;&lt;/div&gt;" style="text;html=1;align=center;verticalAlign=middle;whiteSpace=wrap;rounded=0;" vertex="1" parent="1">
          <mxGeometry x="290" y="30" width="70" height="60" as="geometry" />
        </mxCell>
        <mxCell id="Hu3N7TcJ0TKd5YK8f3Nd-3" value="Resposta do servidor contendo a porta e o ip da sala livre conseguida, retorna um erro se nenhuma sala vaga foi encontrada" style="text;html=1;align=center;verticalAlign=middle;whiteSpace=wrap;rounded=0;" vertex="1" parent="1">
          <mxGeometry x="140" y="140" width="120" height="99" as="geometry" />
        </mxCell>
        <mxCell id="Hu3N7TcJ0TKd5YK8f3Nd-4" value="Cada sala inciada em um servidor de processamento se conecta ao sevidor Mestre, depois ela envia o ip e a porta do socket que está esperando conexões de cliente. O mestre então salva a sala na lista de salas e seta o estado da sala como 0, indicando que está vazia" style="text;html=1;align=center;verticalAlign=middle;whiteSpace=wrap;rounded=0;" vertex="1" parent="1">
          <mxGeometry x="510" y="10" width="270" height="90" as="geometry" />
        </mxCell>
        <mxCell id="Hu3N7TcJ0TKd5YK8f3Nd-5" value="Após o cleinte receber do servidor de adimistração o ip e a porta da sala livre disponibilizada, ele se conecta a sala de um servidor de processamento. A sala irá esperar dois clientes se conectarem para iniciar um jogo." style="text;html=1;align=center;verticalAlign=middle;whiteSpace=wrap;rounded=0;" vertex="1" parent="1">
          <mxGeometry x="300" y="200" width="280" height="110" as="geometry" />
        </mxCell>
        <mxCell id="Hu3N7TcJ0TKd5YK8f3Nd-7" value="" style="shape=flexArrow;endArrow=classic;html=1;rounded=0;endWidth=50;endSize=14.67;" edge="1" parent="1">
          <mxGeometry width="50" height="50" relative="1" as="geometry">
            <mxPoint x="45" y="50" as="sourcePoint" />
            <mxPoint x="45" y="740" as="targetPoint" />
          </mxGeometry>
        </mxCell>
        <mxCell id="Hu3N7TcJ0TKd5YK8f3Nd-8" value="Fluxo do programa" style="text;html=1;align=center;verticalAlign=middle;whiteSpace=wrap;rounded=0;" vertex="1" parent="1">
          <mxGeometry x="20" y="20" width="60" height="30" as="geometry" />
        </mxCell>
        <mxCell id="Hu3N7TcJ0TKd5YK8f3Nd-9" value="Jogadores se revezam realizando tiros nas posições desejadas tentando acertar os navios do outro jogador. Se algum erro ocorrer o servidor avisa os clientes que a partida será encerra, e encerra o jogo e a conexão com eles. Após isso ele avisa o servidor de administração qual erro ocorreu e que a partida foi encerrada" style="text;html=1;align=center;verticalAlign=middle;whiteSpace=wrap;rounded=0;" vertex="1" parent="1">
          <mxGeometry x="300" y="370" width="280" height="130" as="geometry" />
        </mxCell>
        <mxCell id="Hu3N7TcJ0TKd5YK8f3Nd-11" value="Depois de encerrar o jogo e a conexão com os clientes a sala avisa para o servidor mestre que o jogo foi encerrado normalmente e indica para o servidor qual foi o vencedor da partida para ser inserido no log. O servidor de Mestre altera o valor da sala para indicar que está vaga" style="text;html=1;align=center;verticalAlign=middle;whiteSpace=wrap;rounded=0;" vertex="1" parent="1">
          <mxGeometry x="300" y="560" width="280" height="100" as="geometry" />
        </mxCell>
        <mxCell id="Hu3N7TcJ0TKd5YK8f3Nd-12" value="Após a partida ser finalizada e o servidor Mestre ser avisado, a sala volta para seu estado inicial de espera de clientes." style="text;html=1;align=center;verticalAlign=middle;whiteSpace=wrap;rounded=0;" vertex="1" parent="1">
          <mxGeometry x="280" y="660" width="320" height="60" as="geometry" />
        </mxCell>
        <mxCell id="Hu3N7TcJ0TKd5YK8f3Nd-15" value="Após um jogador eliminar todos os navio, ele é determinado com vencedor, o servidor então envia para os clientes o resultado do jogo e encerra a conexão com eles " style="text;html=1;align=center;verticalAlign=middle;whiteSpace=wrap;rounded=0;" vertex="1" parent="1">
          <mxGeometry x="300" y="500" width="280" height="60" as="geometry" />
        </mxCell>
        <mxCell id="Hu3N7TcJ0TKd5YK8f3Nd-16" value="A sala avisa os clientes que o jogo começou e recebe de cada cliente os dados de onde desejam colocar todos seus navios. " style="text;html=1;align=center;verticalAlign=middle;whiteSpace=wrap;rounded=0;" vertex="1" parent="1">
          <mxGeometry x="300" y="310" width="280" height="60" as="geometry" />
        </mxCell>
        <mxCell id="Hu3N7TcJ0TKd5YK8f3Nd-18" value="Após um jogo ser finalizado a sala irá avisar o servidor Mestre sobre como o jogo terminou e o vencedor/erro para ser feito o log das salas com os resultados dos jogos. O sevidor mestre então salva o estado da sala como 0, para indicar que a sala está vazia" style="text;html=1;align=center;verticalAlign=middle;whiteSpace=wrap;rounded=0;" vertex="1" parent="1">
          <mxGeometry x="610" y="110" width="170" height="140" as="geometry" />
        </mxCell>
      </root>
    </mxGraphModel>
  </diagram>
</mxfile>
